<?xml version="1.0" encoding="utf-8"?>
<!-- Generator: Adobe Illustrator 16.0.0, SVG Export Plug-In . SVG Version: 6.00 Build 0)  -->
<!DOCTYPE svg PUBLIC "-//W3C//DTD SVG 1.1//EN" "http://www.w3.org/Graphics/SVG/1.1/DTD/svg11.dtd">
<svg version="1.1" id="Livello_1" xmlns="http://www.w3.org/2000/svg" xmlns:xlink="http://www.w3.org/1999/xlink" x="0px" y="0px"
	 width="800px" height="600px" viewBox="0 0 800 600" enable-background="new 0 0 800 600" xml:space="preserve">
<g>
	<path fill="#185C37" d="M482.5,285l-255-45v332.505c0,15.186,12.31,27.495,27.495,27.495l0,0h440.01
		c15.186,0,27.495-12.31,27.495-27.495l0,0V450L482.5,285z"/>
	<path fill="#21A366" d="M482.5,0H254.995C239.81,0,227.5,12.31,227.5,27.495l0,0V150l255,150l135,45l105-45V150L482.5,0z"/>
	<path fill="#107C41" d="M227.5,150h255v150h-255V150z"/>
	<path opacity="0.1" enable-background="new    " d="M410.005,120H227.5v375h182.505c15.165-0.049,27.446-12.33,27.495-27.495
		v-320.01C437.451,132.331,425.17,120.049,410.005,120z"/>
	<path opacity="0.2" enable-background="new    " d="M395.005,135H227.5v375h167.505c15.165-0.049,27.446-12.33,27.495-27.495
		v-320.01C422.451,147.331,410.17,135.049,395.005,135z"/>
	<path opacity="0.2" enable-background="new    " d="M395.005,135H227.5v345h167.505c15.165-0.049,27.446-12.33,27.495-27.495
		v-290.01C422.451,147.331,410.17,135.049,395.005,135z"/>
	<path opacity="0.2" enable-background="new    " d="M380.005,135H227.5v345h152.505c15.165-0.049,27.446-12.33,27.495-27.495
		v-290.01C407.451,147.331,395.169,135.049,380.005,135z"/>
	
		<linearGradient id="SVGID_1_" gradientUnits="userSpaceOnUse" x1="188.0381" y1="-1108.9927" x2="952.5111" y2="215.0427" gradientTransform="matrix(0.2817 0 0 0.2817 81.8592 425.9085)">
		<stop  offset="0" style="stop-color:#18884F"/>
		<stop  offset="0.5" style="stop-color:#117E43"/>
		<stop  offset="1" style="stop-color:#0B6631"/>
	</linearGradient>
	<path fill="url(#SVGID_1_)" d="M104.995,135h275.01c15.185,0,27.495,12.31,27.495,27.495v275.01
		c0,15.185-12.31,27.495-27.495,27.495h-275.01C89.81,465,77.5,452.69,77.5,437.505v-275.01C77.5,147.31,89.81,135,104.995,135z"/>
	<path fill="#FFFFFF" d="M162.655,389.37l57.84-89.625l-52.995-89.13h42.63l28.92,57c2.67,5.415,4.5,9.435,5.49,12.09h0.375
		c1.9-4.32,3.9-8.515,6-12.585l30.915-56.475h39.135L266.62,299.25l55.726,90.12h-41.64L247.3,326.805
		c-1.573-2.661-2.909-5.458-3.99-8.354h-0.495c-0.979,2.838-2.277,5.556-3.871,8.1l-34.395,62.82H162.655L162.655,389.37z"/>
	<path fill="#33C481" d="M695.005,0H482.5v150h240V27.495C722.5,12.31,710.19,0,695.005,0L695.005,0z"/>
	<path fill="#107C41" d="M482.5,300h240v150h-240V300z"/>
</g>
</svg>
